<?xml version="1.0" standalone="no"?>
<!DOCTYPE svg PUBLIC "-//W3C//DTD SVG 20010904//EN"
 "http://www.w3.org/TR/2001/REC-SVG-20010904/DTD/svg10.dtd">
<svg version="1.0" xmlns="http://www.w3.org/2000/svg"
 width="483.000000pt" height="483.000000pt" viewBox="0 0 483.000000 483.000000"
 preserveAspectRatio="xMidYMid meet">
<metadata>
Created by potrace 1.11, written by Peter Selinger 2001-2013
</metadata>
<g transform="translate(0.000000,483.000000) scale(0.100000,-0.100000)"
fill="#000000" stroke="none">
<path d="M2239 4826 c-2 -2 -35 -6 -74 -10 -88 -8 -141 -16 -260 -40 -121 -25
-340 -96 -451 -146 -98 -44 -120 -55 -209 -104 -348 -190 -693 -521 -890 -853
-25 -43 -50 -85 -55 -93 -22 -37 -103 -207 -129 -273 -60 -151 -122 -375 -137
-492 -3 -21 -7 -42 -9 -45 -19 -30 -26 -473 -11 -624 5 -44 19 -132 32 -195
14 -64 27 -127 30 -141 10 -51 93 -287 123 -353 17 -37 31 -69 31 -72 0 -14
132 -243 181 -315 116 -170 279 -354 430 -486 119 -104 314 -235 464 -312 88
-44 212 -102 221 -102 3 0 20 -7 37 -15 75 -34 321 -99 491 -129 77 -14 207
-21 371 -21 216 1 311 10 480 47 50 10 99 21 110 23 220 48 567 208 780 360
282 202 498 430 675 714 79 127 217 416 225 471 0 3 11 34 22 70 26 77 57 201
72 285 6 33 13 71 16 85 20 103 27 513 11 630 -4 30 -9 64 -10 75 -2 11 -6 34
-9 50 -4 17 -9 46 -12 65 -3 19 -15 71 -26 115 -144 571 -472 1047 -966 1403
-40 29 -76 52 -80 52 -3 0 -14 6 -22 14 -9 7 -36 24 -61 37 -25 13 -47 26 -50
29 -10 11 -198 100 -270 128 -136 54 -335 113 -435 128 -32 6 -51 9 -105 18
-19 3 -55 9 -80 12 -52 6 -445 15 -451 10z m386 -291 c111 -12 140 -17 230
-36 601 -131 1099 -493 1407 -1024 120 -207 221 -486 254 -705 3 -25 8 -54 10
-65 23 -120 22 -459 0 -582 -2 -10 -7 -38 -11 -63 -28 -185 -127 -475 -220
-645 -347 -638 -966 -1051 -1680 -1121 -176 -18 -412 -7 -585 26 -30 6 -67 13
-82 15 -63 11 -270 80 -368 121 -341 146 -650 388 -869 683 -239 323 -380 689
-417 1081 -9 102 -11 292 -3 365 4 33 10 85 13 116 7 56 10 79 21 129 3 14 7
35 10 48 20 109 93 318 160 458 118 248 306 494 533 696 61 54 236 178 327
231 77 44 221 114 275 132 3 1 17 7 32 13 53 22 224 72 313 91 107 23 144 28
250 37 44 4 81 7 82 8 6 5 263 -3 318 -9z"/>
<path d="M1265 2980 c-55 -8 -79 -24 -105 -65 -37 -59 -26 -130 27 -179 30
-28 48 -33 168 -41 472 -35 873 -426 911 -890 10 -126 13 -146 31 -175 23 -39
94 -74 131 -66 55 13 78 27 102 63 20 30 25 48 25 107 1 134 -33 302 -91 449
-175 440 -602 757 -1069 793 -38 3 -74 6 -80 8 -5 1 -28 -1 -50 -4z"/>
<path d="M3385 2973 c-181 -23 -379 -98 -535 -202 -86 -57 -111 -78 -196 -162
l-62 -61 42 -71 c23 -40 55 -102 71 -139 16 -37 32 -64 35 -60 103 130 152
177 256 247 150 102 314 158 496 171 109 8 144 21 176 68 44 64 24 157 -41
196 -26 16 -49 20 -122 18 -49 0 -103 -3 -120 -5z"/>
</g>
</svg>
